<?xml version="1.0" standalone="no"?>
<!DOCTYPE svg PUBLIC "-//W3C//DTD SVG 20010904//EN"
 "http://www.w3.org/TR/2001/REC-SVG-20010904/DTD/svg10.dtd">
<svg version="1.0" xmlns="http://www.w3.org/2000/svg"
 width="100.000000pt" height="100.000000pt" viewBox="0 0 100.000000 100.000000"
 preserveAspectRatio="xMidYMid meet">

<g transform="translate(0.000000,100.000000) scale(0.100000,-0.100000)"
fill="#000000" stroke="none">
<path d="M459 839 c-15 -15 -19 -28 -15 -47 4 -15 8 -32 9 -37 1 -6 -61 -119
-138 -252 -117 -203 -144 -243 -162 -243 -28 0 -63 -33 -63 -60 0 -26 34 -60
60 -60 12 0 31 11 44 25 l23 25 283 0 283 0 23 -25 c13 -14 32 -25 44 -25 26
0 60 34 60 60 0 27 -35 60 -62 60 -19 0 -46 40 -163 243 -77 133 -139 246
-138 252 1 5 5 22 9 37 7 30 -23 68 -56 68 -11 0 -29 -9 -41 -21z m31 -225 c0
-123 -1 -127 -25 -146 -15 -11 -25 -30 -25 -44 0 -21 -20 -38 -122 -104 -67
-44 -123 -78 -125 -76 -6 5 281 495 290 496 4 0 7 -57 7 -126z m178 -121 c78
-135 141 -247 140 -249 -2 -2 -59 33 -126 76 -101 66 -122 83 -122 104 0 14
-10 33 -25 44 -24 19 -25 23 -25 146 0 69 3 126 8 126 4 0 71 -111 150 -247z
m10 -193 c61 -40 112 -77 112 -81 0 -5 -131 -9 -291 -9 -189 0 -290 3 -287 10
2 6 54 43 117 83 112 72 115 73 175 72 58 -2 67 -6 174 -75z"/>
</g>
</svg>
